<svg xmlns="http://www.w3.org/2000/svg" width="96" height="96" viewBox="0 0 96 96">
  <defs>
    <linearGradient id="bg" x1="18" y1="12" x2="78" y2="84" gradientUnits="userSpaceOnUse">
      <stop stop-color="#66B8FF"/>
      <stop offset="1" stop-color="#246FE5"/>
    </linearGradient>
    <filter id="shadow" x="-20%" y="-20%" width="140%" height="140%">
      <feDropShadow dx="0" dy="5" stdDeviation="5" flood-color="#1D65C7" flood-opacity=".22"/>
    </filter>
  </defs>
  <rect x="10" y="10" width="76" height="76" rx="24" fill="url(#bg)" filter="url(#shadow)"/>
  <path d="M30 38c0-6.627 5.373-12 12-12h12c6.627 0 12 5.373 12 12v14c0 6.627-5.373 12-12 12h-8.5L36 70v-7.85A12.003 12.003 0 0 1 30 52V38Z" fill="#fff" fill-opacity=".96"/>
  <circle cx="42" cy="45" r="3" fill="#3983EA"/>
  <circle cx="54" cy="45" r="3" fill="#3983EA"/>
  <path d="M41 54c4.667 3.333 9.333 3.333 14 0" fill="none" stroke="#3983EA" stroke-width="3" stroke-linecap="round"/>
  <path d="M70 21l1.8 4.2L76 27l-4.2 1.8L70 33l-1.8-4.2L64 27l4.2-1.8L70 21Z" fill="#fff"/>
</svg>
